<svg xmlns="http://www.w3.org/2000/svg" viewBox="0 0 460 460"><circle cx="230" cy="230" r="230" fill="#0c0c0b"/><circle cx="230" cy="230" r="208" fill="none" stroke="#f2efe8" stroke-width="30"/><path fill="#f2efe8" transform="translate(0 460) scale(0.1 -0.1)" d="M1660 3816 c0 -4 12 -28 27 -53 14 -25 36 -63 47 -84 29 -54 175 -292 255 -414 36 -55 80 -129 99 -165 104 -200 158 -269 229 -298 l53 -21 72 30 c40 16 82 36 94 44 20 13 104 146 104 164 0 5 -26 29 -57 54 -32 25 -80 66 -108 91 -27 26 -79 67 -115 91 -36 25 -108 81 -160 125 -156 132 -306 253 -363 293 -30 21 -72 55 -93 75 -57 54 -84 76 -84 68z m330 -396 c-6 -11 -15 -20 -20 -20 -5 0 -14 9 -20 20 -10 18 -8 20 20 20 28 0 30 -2 20 -20z m54 -68 c2 -4 -2 -16 -10 -27 -15 -21 -33 -9 -34 23 0 13 36 17 44 4z m46 -107 c-10 -12 -16 -13 -26 -4 -20 16 -18 19 12 19 22 0 25 -2 14 -15z m50 -85 c-6 -11 -15 -20 -19 -20 -5 0 -11 9 -14 20 -4 16 0 20 19 20 22 0 23 -3 14 -20z m60 -74 c0 -27 -28 -39 -39 -17 -15 28 -14 31 14 31 15 0 25 -6 25 -14z m48 -106 c-7 -11 -15 -20 -18 -20 -3 0 -11 9 -18 20 -11 18 -10 20 18 20 28 0 29 -2 18 -20z m62 -64 c0 -16 -14 -36 -26 -36 -8 0 -14 2 -14 4 0 2 -3 11 -6 20 -5 12 0 16 20 16 14 0 26 -2 26 -4z M1476 3229 c-67 -188 -65 -166 -27 -255 16 -38 32 -98 36 -134 6 -62 8 -66 51 -99 25 -19 46 -32 48 -30 2 2 8 13 14 24 11 21 11 20 61 -162 29 -105 37 -116 45 -57 19 139 15 136 48 35 34 -102 47 -114 49 -43 3 108 10 111 54 23 22 -45 43 -81 46 -81 4 0 10 20 13 45 l7 45 35 -27 c35 -26 37 -26 94 -15 62 13 85 8 143 -31 28 -19 29 -19 79 2 68 28 64 29 147 -33 l73 -55 126 109 c70 60 181 161 247 225 66 65 140 134 165 154 117 94 289 266 250 249 -8 -4 -98 -42 -200 -86 -102 -44 -222 -95 -268 -115 -46 -20 -98 -39 -115 -43 -18 -3 -90 -32 -162 -64 -71 -31 -140 -60 -151 -64 -21 -6 -129 36 -257 100 -60 29 -86 30 -139 3 l-42 -21 -63 32 c-35 18 -98 57 -141 86 -86 61 -92 62 -157 34 -26 -11 -51 -17 -56 -14 -25 15 -50 120 -32 137 11 11 43 -51 43 -83 0 -36 15 -38 54 -7 l29 23 -63 95 c-76 114 -78 116 -84 98z m1394 -383 c0 -2 -71 -66 -157 -142 -87 -75 -170 -149 -185 -162 l-28 -26 -50 24 c-27 13 -50 24 -50 25 0 2 9 22 20 47 21 49 37 58 320 182 140 61 130 57 130 52z m-818 -161 l55 -45 103 30 c57 16 105 28 107 26 2 -2 -30 -33 -71 -70 -70 -62 -77 -66 -122 -66 -46 0 -52 3 -110 61 l-62 62 -84 8 c-46 4 -85 9 -88 10 -8 3 143 26 181 28 30 1 47 -8 91 -44z M2853 3119 l-131 -70 -56 -81 c-31 -45 -54 -83 -52 -86 3 -2 48 10 101 28 87 29 99 36 128 76 18 25 55 75 82 112 53 70 68 92 63 92 -2 -1 -62 -32 -135 -71z m-24 -90 c-30 -39 -42 -47 -98 -64 l-23 -7 18 32 c12 20 37 41 69 55 69 32 71 31 34 -16z M3127 2815 c-115 -23 -119 -25 -180 -77 -57 -48 -98 -90 -94 -95 1 -1 45 4 98 11 l96 12 100 72 c107 77 136 103 112 101 -8 -1 -67 -12 -132 -24z m-37 -66 c-40 -35 -70 -49 -108 -49 l-27 0 27 26 c20 21 94 49 138 53 3 0 -11 -14 -30 -30z M3130 2643 c-37 -4 -53 -13 -95 -51 -27 -26 -65 -60 -84 -75 -41 -34 -43 -32 58 -56 46 -11 85 -22 88 -24 2 -2 -28 -30 -67 -62 -38 -31 -70 -61 -70 -65 0 -5 41 -32 91 -61 105 -60 104 -61 -28 -79 -51 -7 -93 -16 -93 -20 0 -3 25 -28 55 -54 30 -26 55 -51 55 -56 0 -5 -40 -6 -90 -3 -49 3 -90 4 -90 2 0 -14 31 -102 45 -129 22 -42 19 -43 -60 -25 -37 9 -70 13 -73 10 -3 -3 6 -42 20 -85 l26 -80 -21 0 c-12 0 -47 7 -77 15 -86 23 -83 26 -75 -65 8 -93 14 -90 -94 -51 l-81 28 -9 -36 c-6 -20 -15 -58 -22 -86 -9 -40 -24 -63 -72 -112 l-60 -61 7 -59 c33 -297 59 -511 63 -523 3 -8 14 23 23 70 57 271 89 437 105 531 10 59 21 112 25 119 6 9 39 -5 126 -53 66 -36 120 -62 122 -58 2 5 -8 69 -22 142 -13 74 -23 136 -20 138 2 2 72 -42 155 -98 84 -55 154 -99 156 -97 4 3 -55 142 -97 229 -11 22 -20 44 -20 48 0 6 33 0 233 -46 53 -12 97 -19 97 -15 0 4 -50 56 -110 116 -61 60 -106 110 -100 112 6 2 76 -4 155 -13 80 -9 150 -15 156 -13 7 2 -12 22 -41 43 -30 22 -65 49 -78 61 -13 12 -47 39 -77 60 -57 39 -62 54 -17 54 30 1 261 46 268 53 3 2 -10 10 -28 17 -18 8 -73 32 -123 56 -49 23 -108 49 -130 58 l-40 17 144 76 c167 88 167 83 -16 109 -159 22 -159 21 -63 84 113 74 113 75 -30 63z M2868 2540 c-49 -49 -88 -91 -88 -93 0 -3 20 -10 45 -16 58 -15 57 -21 -17 -77 -53 -41 -59 -49 -42 -56 10 -4 39 -16 64 -26 l44 -19 -119 -64 -120 -64 -46 -78 c-25 -43 -49 -80 -52 -83 -3 -3 -29 2 -58 10 -93 28 -91 34 -49 -124 21 -77 43 -147 49 -154 13 -15 131 -59 139 -52 2 2 -2 39 -8 81 -6 42 -10 78 -8 80 2 3 39 -5 81 -17 42 -12 79 -19 82 -16 3 2 -6 38 -20 78 -14 40 -23 76 -20 78 3 3 35 0 71 -7 37 -6 68 -10 71 -7 2 2 -12 36 -31 75 l-36 71 87 0 88 1 -48 42 c-26 23 -47 47 -47 53 0 6 39 17 90 24 50 7 93 16 95 21 3 4 -33 28 -80 54 -47 25 -85 49 -84 53 0 4 27 29 60 55 32 27 59 52 59 56 0 5 -33 17 -72 27 -40 10 -73 24 -73 29 0 6 32 39 70 75 84 77 86 80 43 80 -28 0 -45 -13 -120 -90z M2745 2550 c-225 -191 -242 -208 -249 -252 -12 -74 -40 -160 -53 -165 -21 -8 -233 39 -232 51 0 6 10 38 22 71 l22 60 69 23 c38 13 70 21 72 20 5 -6 -31 -118 -38 -118 -4 0 -8 12 -10 28 -3 25 -6 27 -42 25 -48 -3 -43 2 -48 -58 l-3 -50 93 -9 c51 -4 95 -6 97 -4 3 2 9 42 14 89 l11 84 -48 43 c-84 77 -83 77 -144 46 -50 -25 -117 -74 -198 -143 -49 -43 -70 -41 -70 7 0 37 0 37 -48 -43 l-47 -80 -10 57 c-5 31 -13 59 -16 62 -3 3 -25 -35 -49 -84 -24 -50 -48 -90 -52 -90 -4 0 -8 27 -8 60 0 74 -11 76 -39 8 -62 -149 -69 -156 -73 -65 l-3 62 -18 -40 c-10 -22 -39 -94 -63 -160 -45 -120 -77 -169 -172 -265 -18 -19 -48 -55 -65 -80 -17 -25 -59 -79 -94 -121 -35 -43 -63 -80 -63 -83 0 -3 37 21 83 54 152 110 322 226 377 259 30 18 72 48 94 67 l39 33 -32 36 c-17 20 -29 40 -26 45 3 4 76 36 162 70 l157 61 78 -36 c100 -45 103 -45 73 15 -14 28 -22 50 -17 50 4 0 81 -20 171 -45 90 -25 167 -43 171 -40 5 3 23 32 41 65 38 72 44 77 143 134 l80 45 -47 20 c-26 11 -47 22 -47 25 0 3 27 26 61 52 65 49 65 55 7 74 -21 6 -38 15 -38 19 0 4 36 40 80 80 89 81 95 91 48 91 -26 0 -49 -14 -103 -60z M2054 2479 c-3 -6 6 -37 21 -69 l28 -58 53 35 c65 43 65 44 10 77 -46 27 -100 34 -112 15z M2230 2036 c0 -2 7 -22 15 -45 17 -48 24 -48 -92 -6 -35 12 -63 19 -63 15 0 -4 32 -37 70 -74 83 -78 84 -81 36 -224 -19 -56 -32 -102 -28 -102 3 0 55 49 114 110 120 121 117 114 89 229 l-18 74 -44 13 c-43 13 -79 18 -79 10z M1977 2004 c-67 -17 -68 -20 -19 -66 49 -45 56 -43 70 25 12 57 10 58 -51 41z M1818 1952 c-65 -23 -65 -24 -10 -71 61 -51 58 -51 66 7 4 26 9 55 12 65 6 21 -6 21 -68 -1z M2390 1782 c0 -4 -18 -26 -39 -49 -22 -23 -47 -53 -56 -67 -18 -28 -97 -326 -86 -326 3 0 45 33 92 74 83 72 86 75 107 149 25 85 27 132 10 188 -10 34 -28 54 -28 31z"/></svg>
